<svg xmlns="http://www.w3.org/2000/svg"><style>:root svg:not(:target){display:none}</style><svg fill="none" id="academy" viewBox="0 0 20 24"><path d="M10.11 0h-.07L0 .99v17.38L10.04 24 20 18.37V.99L10.11 0Zm8.48 8.52-8.55-4.79v-.07h-.08l-.07-.07v.07L1.4 8.52V2.18l8.55-.84 8.63.84v6.34ZM9.96 4.79l8.55 4.71-3.34 1.83-5.28-2.95v.98l4.39 2.46-.67.36-3.72-2.12v.99l2.82 1.62-.6.35-2.22-1.27v.99l1.41.77-1.34.78L1.5 9.57 9.96 4.8Zm-8.55 5.84L9.9 15.4v.7L4 12.82v.98l5.95 3.38v.78L4 14.65v.98L9.96 19 16 15.55V11.9l2.52-1.4v7.03l-8.55 4.86-8.55-4.78v-6.97Z" fill="currentColor"></path></svg><svg fill="none" id="delivery" viewBox="0 0 33 32"><path d="M25.83 9.33c0-1.46-1.2-2.66-2.66-2.66h-4v2.66h4v3.54l-4.64 5.8h-4.7V12H8.5a5.33 5.33 0 0 0-5.33 5.33v4h2.66a4 4 0 1 0 8 0h5.98l6.02-7.53V9.33Zm-20 9.34v-1.34c0-1.46 1.2-2.66 2.67-2.66h2.67v4H5.83Zm4 4c-.73 0-1.33-.6-1.33-1.34h2.67c0 .74-.6 1.34-1.34 1.34Z" fill="#0F805D"></path><path d="M7.17 8h6.66v2.67H7.17V8Zm18.66 9.33a4 4 0 1 0 0 8 4 4 0 0 0 0-8Zm0 5.34a1.34 1.34 0 0 1 0-2.67c.74 0 1.34.6 1.34 1.33 0 .74-.6 1.34-1.34 1.34Z" fill="#0F805D"></path></svg><svg fill="currentColor" id="email" viewBox="0 0 32 32"><path d="M23.88 9H8.13c-.3 0-.59.12-.8.34-.21.22-.33.52-.33.83v11.66c0 .31.12.61.33.83.21.22.5.34.8.34h15.74c.3 0 .59-.12.8-.34.21-.22.33-.52.33-.83V10.17c0-.31-.12-.61-.33-.83a1.1 1.1 0 0 0-.8-.34ZM23 21.83H9.06L13 17.61l-.81-.81-4.06 4.36v-10.1l6.99 7.2a1.1 1.1 0 0 0 1.58 0l7.18-7.39v10.21l-4.14-4.3-.8.83 4.07 4.22ZM8.86 10.17h14.1l-7.05 7.27-7.05-7.27Z"></path></svg><svg fill="none" id="ice" viewBox="0 0 33 32"><path d="M16.5 28a.92.92 0 0 1-.6-.22.7.7 0 0 1-.25-.53v-1.94l-1.11.97a.92.92 0 0 1-.6.22.92.92 0 0 1-.62-.22.7.7 0 0 1-.25-.53c0-.2.1-.39.26-.53l2.32-2.03v-5.9L9.8 20.25l-.85 2.78c-.06.2-.2.35-.4.45-.2.1-.43.13-.65.08a.85.85 0 0 1-.52-.35.67.67 0 0 1-.08-.57l.4-1.32-1.92.96c-.2.1-.43.13-.65.08a.85.85 0 0 1-.52-.35.67.67 0 0 1-.08-.57c.06-.2.2-.35.4-.45L6.85 20l-1.52-.36a.91.91 0 0 1-.3-.13.8.8 0 0 1-.22-.22.66.66 0 0 1-.08-.57c.02-.1.07-.18.14-.26a.83.83 0 0 1 .25-.2.94.94 0 0 1 .65-.07l3.17.74L14.8 16l-5.83-2.94-3.18.74a.97.97 0 0 1-.64-.08.77.77 0 0 1-.4-.46.67.67 0 0 1 .09-.56c.11-.17.3-.3.51-.35l1.52-.36-1.93-.97a.84.84 0 0 1-.25-.19.72.72 0 0 1-.15-.26.66.66 0 0 1 .08-.57.8.8 0 0 1 .23-.22.98.98 0 0 1 .95-.05l1.92.96-.4-1.32a.66.66 0 0 1 .07-.58.79.79 0 0 1 .23-.22.98.98 0 0 1 .96-.05c.1.05.18.12.25.2.07.08.12.17.14.26l.85 2.78 5.84 2.94V8.81l-2.32-2.03a.75.75 0 0 1-.2-.24.67.67 0 0 1 0-.58c.05-.09.11-.17.2-.24a.87.87 0 0 1 .27-.16.97.97 0 0 1 .94.16l1.1.97V4.75c0-.2.1-.39.26-.53a.92.92 0 0 1 .6-.22c.23 0 .45.08.61.22a.7.7 0 0 1 .25.53v1.94l1.11-.97a.92.92 0 0 1 .6-.22c.24 0 .45.08.62.22a.7.7 0 0 1 .25.53c0 .2-.1.39-.26.53l-2.32 2.03v5.9l5.83-2.95.85-2.78c.06-.2.2-.35.4-.45.2-.1.44-.13.66-.08.22.05.4.18.52.35.11.17.14.38.08.57l-.4 1.32 1.92-.96c.2-.1.43-.13.65-.08.22.06.4.18.52.35.1.17.14.38.08.57-.06.2-.2.35-.4.45l-1.92.97 1.52.36c.22.05.4.18.52.35.11.17.14.38.09.57-.06.2-.2.35-.4.45-.2.1-.44.13-.66.08l-3.17-.74L18.22 16l5.83 2.94 3.17-.74a.97.97 0 0 1 .65.08c.2.1.35.26.4.45.06.2.03.4-.08.57-.12.17-.3.3-.52.35l-1.52.36 1.92.97c.2.1.34.26.4.45.06.2.03.4-.09.57-.11.17-.3.3-.51.35a.97.97 0 0 1-.65-.08l-1.92-.96.4 1.32a.66.66 0 0 1-.08.58.79.79 0 0 1-.22.22.98.98 0 0 1-.96.05.83.83 0 0 1-.25-.2.71.71 0 0 1-.15-.26l-.85-2.78-5.83-2.94v5.89l2.32 2.03a.7.7 0 0 1 .25.53.7.7 0 0 1-.25.53.92.92 0 0 1-.6.22.92.92 0 0 1-.61-.22l-1.11-.97v1.94a.7.7 0 0 1-.25.53.92.92 0 0 1-.6.22Z" fill="#0F805D"></path></svg><svg fill="currentColor" id="leaf-contacts" viewBox="0 0 32 32"><path d="M21.49 9.98a14.2 14.2 0 0 0-5.11-5.07L16 4.69l-.38.22a14.11 14.11 0 0 0-7.05 12.72c.08 2.2.92 4.04 2.43 5.34 1.16 1 2.65 1.6 4.25 1.75v2.59h1.5v-12h-1.5v7.9a5.63 5.63 0 0 1-5.18-5.64 12.73 12.73 0 0 1 1.58-6.55A12.67 12.67 0 0 1 16 6.43a12.67 12.67 0 0 1 5.93 11.14 5.54 5.54 0 0 1-3.68 5.28v1.59A7.32 7.32 0 0 0 21 22.97a7.14 7.14 0 0 0 2.43-5.83c0-2.52-.67-5-1.94-7.16Z"></path></svg><svg fill="none" id="leaf" viewBox="0 0 33 32"><path d="M12.5 22c11.96 0 12.92-10.17 13-15a.98.98 0 0 0-1-1c-17 .32-17 8.55-17 16v4" stroke="#0F805D" stroke-width="2" stroke-linecap="round" stroke-linejoin="round"></path><path d="M7.5 22s0-6 8-7" stroke="#0F805D" stroke-width="2" stroke-linecap="round" stroke-linejoin="round"></path></svg><svg fill="none" id="logo" viewBox="0 0 52 52"><path d="M14.4 18.44s-1.86 1.12-2.27 2.96a10.5 10.5 0 0 0 0 3.86s-2.92 1.2-2.92 5c0 3.78 2.46 4.86 2.46 4.86s.03 4.47 2.79 6.88a9.44 9.44 0 0 0 5.65 2.43s1.5 3.18 5.93 3.18 5.94-3.18 5.94-3.18 3-.44 5.65-2.43c2.66-1.98 2.58-6.88 2.58-6.88s2.67-1.08 2.67-4.87-2.92-5-2.92-5 .42-2 0-3.85c-.42-1.84-2.28-2.96-2.28-2.96" fill="#B22EC8"></path><path d="M40.05 24.14c0-7.74-6.28-9.92-14.02-9.92-7.74 0-14.02 2.18-14.02 9.92a14.02 14.02 0 0 0 28.04 0Z" fill="#B22EC8"></path><path d="M26.47 47.6s3.8-2.65 3.55-8.75c1.63-1.7 2.13-3.97.65-6.74 2.5-3.56 2.24-7.42-.75-10.35 1.23-1.77.59-3.32-.8-4.47 0 0 4 1.96 7.08-.85 0 0 6.46 4.64 3.76 8.82 0 0 7.13 4.82.25 9.86 0 0 1 7.68-8.06 9.28 0 0-2.38 2.7-5.68 3.2Z" fill="#6A107A"></path><path d="M40.29 8.13c-3.09 14.4-12.55 9.49-13.84 6.96-1.28-2.53-.04-12.61 13.84-6.96Z" fill="currentColor"></path><path d="M11.8 8.13c3.09 14.4 12.55 9.49 13.84 6.96 1.28-2.53.04-12.61-13.84-6.96Z" fill="currentColor"></path><path d="M40.29 8.13c-3.09 14.4-12.55 9.49-13.84 6.96-1.29-2.53-.04-12.61 13.84-6.96v0Z" stroke="#000" stroke-width="2" stroke-miterlimit="10" stroke-linecap="round" stroke-linejoin="round"></path><path d="M32.91 11.05c-2.26.86-5.15 2.26-6.44 4.08m-14.67-7c3.09 14.4 12.55 9.49 13.84 6.96 1.28-2.53.04-12.61-13.84-6.96v0Z" stroke="#000" stroke-width="2" stroke-miterlimit="10" stroke-linecap="round" stroke-linejoin="round"></path><path d="M19.18 11.05c2.26.86 5.15 2.26 6.43 4.08m-11.2 3.31s-1.87 1.12-2.28 2.96a10.5 10.5 0 0 0 0 3.86s-2.92 1.2-2.92 5c0 3.78 2.46 4.86 2.46 4.86s.03 4.47 2.79 6.88a9.44 9.44 0 0 0 5.65 2.43s1.5 3.18 5.93 3.18 5.94-3.18 5.94-3.18 3-.44 5.65-2.43c2.66-1.98 2.58-6.88 2.58-6.88s2.67-1.08 2.67-4.87-2.92-5-2.92-5 .42-2 0-3.85c-.42-1.84-2.28-2.96-2.28-2.96" stroke="#000" stroke-width="2" stroke-miterlimit="10" stroke-linecap="round" stroke-linejoin="round"></path><path d="M30.5 21.29s-1.88 2-4.21 2m-4.38-2s1.89 2 4.22 2m10.03 5.26a3.9 3.9 0 0 1-4 3.78M28 28.55a3.9 3.9 0 0 0 4 3.78m-7.53-3.78a3.9 3.9 0 0 1-4 3.78m-4.16-3.78a3.9 3.9 0 0 0 4 3.78m9.95 6.57c-.75 1-2.28 1.69-4.04 1.69m-4.3-1.81c.71 1.07 2.3 1.81 4.13 1.81m-4.17-1.55c0 .9-.56 1.7-1.45 2.27m9.88-2.27c0 .97.66 1.84 1.69 2.41M16.9 30.82c0 1.7-1.2 3.15-2.84 3.62m4-13.18c0 2.24-1.79 4.05-4 4.05m19.43-4.05c0 2.24 1.8 4.05 4 4.05m-1.92 5.5a3.8 3.8 0 0 0 2.63 3.56" stroke="#000" stroke-width="2" stroke-miterlimit="10" stroke-linecap="round" stroke-linejoin="round"></path></svg><svg fill="currentColor" id="phone" viewBox="0 0 32 32"><path d="m12.56 6.5-.86.26a4.2 4.2 0 0 0-2.94 3.43c-.36 2.48.44 5.38 2.36 8.7 1.92 3.33 4.02 5.47 6.35 6.4a4.2 4.2 0 0 0 4.45-.84l.66-.62a2.4 2.4 0 0 0 .3-3.15l-1.64-2.25a1.8 1.8 0 0 0-1.98-.67l-2.46.75-.07.01c-.27.04-.9-.54-1.67-1.9-.82-1.4-.99-2.24-.76-2.45L15.55 13a3 3 0 0 0 .69-3.42l-.8-1.76a2.4 2.4 0 0 0-2.88-1.32Zm1.79 1.81.8 1.77a1.8 1.8 0 0 1-.42 2.05l-1.26 1.17c-.8.76-.53 2.06.55 3.93 1.01 1.75 1.94 2.62 2.94 2.47l.14-.03 2.51-.76a.6.6 0 0 1 .66.22l1.63 2.25a1.2 1.2 0 0 1-.15 1.58l-.65.62a3 3 0 0 1-3.18.6c-2.04-.82-3.97-2.77-5.76-5.88-1.8-3.11-2.53-5.76-2.21-7.94a3 3 0 0 1 2.1-2.45l.86-.26a1.2 1.2 0 0 1 1.44.66Z"></path></svg><svg fill="none" id="telegram" viewBox="0 0 32 32"><circle cx="16" cy="16" r="15.5" stroke="currentColor"></circle><path d="M23.16 7.81a1.24 1.24 0 0 0-1.26-.2l-14.33 5.8a1.23 1.23 0 0 0 .06 2.3l3.09 1.07 1.68 5.54.01.03a.39.39 0 0 0 .26.24l.02.01h.2l.01-.01a.4.4 0 0 0 .16-.1l.02-.01 2.4-2.66L19 22.54a1.24 1.24 0 0 0 1.96-.73L23.59 9a1.23 1.23 0 0 0-.42-1.19Zm-9.89 10.03-.56 2.75-1.19-3.9 5.86-3.05-4 4a.4.4 0 0 0-.1.2Zm6.91 3.81a.43.43 0 0 1-.28.32.42.42 0 0 1-.4-.06l-3.82-2.95a.4.4 0 0 0-.54.05l-1.68 1.85.57-2.75 5.75-5.75a.4.4 0 0 0-.47-.64l-8.29 4.32-3.13-1.09a.42.42 0 0 1-.29-.39.43.43 0 0 1 .27-.41l14.33-5.8a.43.43 0 0 1 .45.08.42.42 0 0 1 .14.41l-2.6 12.81Z" fill="currentColor"></path></svg><svg fill="none" id="vkontakte" viewBox="0 0 32 32"><circle cx="16" cy="16" r="15.5" stroke="currentColor"></circle><g clip-path="url(#vkontakte_0)"><path d="M7.4 13.18c0-.5.34-.78 1.03-.82l2.64.02c.18 0 .3.07.36.22.27.74.58 1.38.91 1.91.34.54.78 1.16 1.33 1.86.04.09.12.13.23.13.08 0 .14-.03.2-.1l.04-.16.02-2.56c0-.18-.05-.3-.15-.36-.1-.06-.29-.1-.56-.13-.21-.03-.32-.14-.32-.33 0-.03 0-.06.02-.08.25-.64.96-.97 2.13-.97l1-.01c.44 0 .82.1 1.11.28.3.19.45.48.45.89v3.36c.08.05.16.07.23.07.18 0 .33-.09.46-.27 1.3-1.51 2-2.53 2.11-3.04l.04-.08c.08-.15.22-.27.4-.38.2-.11.36-.18.5-.22.05-.02.1-.03.16-.03h2.75l.18.01c.24 0 .42.1.55.28.05.06.08.13.1.2a1.27 1.27 0 0 1 .04.32v.1c-.08.4-.29.84-.63 1.3-.33.46-.76.95-1.28 1.48-.52.54-.85.89-.98 1.06-.1.11-.16.22-.16.32 0 .08.05.17.14.27l2.6 2.72c.14.16.2.33.2.52 0 .22-.1.41-.31.56-.22.15-.47.23-.77.25l-.3.02H21.1l-.07.01c-.26 0-.5-.1-.73-.28l-1.66-1.75a.9.9 0 0 0-.25-.19 20.54 20.54 0 0 0-.36 1.32l-.05.25a.9.9 0 0 1-.75.62l-.25.02h-1.73c-.99 0-1.97-.38-2.94-1.13a11.75 11.75 0 0 1-2.64-2.9A26.58 26.58 0 0 1 7.5 13.6a1.01 1.01 0 0 1-.09-.42ZM18.07 17a1.4 1.4 0 0 1-.68-.17c-.2-.12-.3-.27-.3-.47v-3.4c0-.2-.06-.34-.18-.42-.11-.09-.32-.13-.62-.13l-1 .03c-.52 0-.9.07-1.16.22.52.21.78.54.78 1v2.61a.85.85 0 0 1-.36.62c-.21.16-.45.24-.7.24a.92.92 0 0 1-.82-.43 14.94 14.94 0 0 1-2.06-3.31L10.8 13H8.45c-.16 0-.24 0-.26.02-.02.02-.03.06-.03.13 0 .08.01.18.04.28l.37.83c1 2.14 2.08 3.82 3.24 5.05 1.17 1.24 2.31 1.85 3.44 1.85h1.77c.07 0 .12-.01.16-.05.04-.03.07-.1.09-.2l.03-.15.34-1.3c.1-.18.18-.3.25-.35a.7.7 0 0 1 .46-.17c.29 0 .58.15.87.43l1.51 1.6c.1.13.2.2.3.2h2.93c.36 0 .53-.08.53-.23 0-.05-.01-.1-.05-.15l-2.57-2.67a.95.95 0 0 1-.3-.67c0-.24.09-.46.28-.68.15-.2.45-.52.9-.98.44-.46.83-.9 1.16-1.29.33-.4.55-.76.65-1.09l.06-.19a.2.2 0 0 1-.02-.1.3.3 0 0 0-.02-.1H21.8a.97.97 0 0 0-.43.26l-.1.28a14.7 14.7 0 0 1-2.33 3.15c-.25.2-.54.3-.87.3Z" fill="currentColor"></path></g><defs><clipPath id="vkontakte_0"><path fill="#fff" d="M6.4 8.8h19.2v15.09H6.4z"></path></clipPath></defs></svg><svg fill="none" id="youtube" viewBox="0 0 32 32"><circle cx="16" cy="16" r="15.5" stroke="currentColor"></circle><path d="m18.56 15.75-3.6-2.4a.3.3 0 0 0-.46.25v4.8a.3.3 0 0 0 .16.26c.04.03.09.04.14.04.06 0 .12-.02.16-.05l3.6-2.4a.3.3 0 0 0 0-.5Zm-3.46 2.09v-3.68L17.86 16l-2.76 1.84Zm8.59-6.13a1.53 1.53 0 0 0-.91-1.02c-2.54-.98-6.6-.96-6.78-.96-.17 0-4.25-.02-6.78.96a1.53 1.53 0 0 0-.9 1.02c-.2.73-.42 2.06-.42 4.29s.22 3.56.41 4.29a1.53 1.53 0 0 0 .91 1.02c2.53.98 6.6.96 6.78.96h.05c.52 0 4.32-.03 6.73-.96a1.53 1.53 0 0 0 .9-1.02c.2-.73.42-2.06.42-4.29s-.23-3.56-.41-4.29Zm-.59 8.43a.9.9 0 0 1-.54.6c-2.43.95-6.52.93-6.56.93-.05 0-4.13.01-6.56-.92a.9.9 0 0 1-.54-.61c-.18-.7-.4-1.98-.4-4.14 0-2.16.22-3.44.4-4.14a.9.9 0 0 1 .54-.6c2.43-.95 6.51-.93 6.56-.93.04 0 4.13-.02 6.56.92a.9.9 0 0 1 .54.61c.18.7.4 1.98.4 4.14 0 2.16-.22 3.44-.4 4.14Z" fill="currentColor"></path></svg></svg>